<svg width="50" height="50" viewBox="0 0 50 50" fill="none" xmlns="http://www.w3.org/2000/svg">
<rect x="0.75" y="0.75" width="48.5" height="48.5" rx="9.25" fill="url(#paint0_linear_1868_8)"/>
<rect x="0.75" y="0.75" width="48.5" height="48.5" rx="9.25" stroke="#3D3D3D" stroke-width="1.5"/>
<g clip-path="url(#clip0_1868_8)">
<path fill-rule="evenodd" clip-rule="evenodd" d="M24.4479 8C14.7996 8 7 16.0208 7 25.9437C7 33.8756 11.9975 40.5897 18.9304 42.9661C19.7971 43.1447 20.1146 42.58 20.1146 42.1049C20.1146 41.689 20.0861 40.2631 20.0861 38.7774C15.2325 39.8471 14.2218 36.6384 14.2218 36.6384C13.4418 34.5588 12.2861 34.0243 12.2861 34.0243C10.6975 32.9251 12.4018 32.9251 12.4018 32.9251C14.1639 33.044 15.0886 34.767 15.0886 34.767C16.6482 37.4999 19.1614 36.7277 20.1725 36.2523C20.3168 35.0936 20.7793 34.2916 21.2704 33.846C17.3993 33.4301 13.3264 31.8853 13.3264 24.9929C13.3264 23.0321 14.0193 21.428 15.1171 20.1804C14.9439 19.7348 14.3371 17.8926 15.2907 15.4269C15.2907 15.4269 16.7639 14.9515 20.0857 17.2688C21.5079 16.876 22.9746 16.6762 24.4479 16.6745C25.9211 16.6745 27.4229 16.8827 28.8096 17.2688C32.1318 14.9515 33.605 15.4269 33.605 15.4269C34.5586 17.8926 33.9514 19.7348 33.7782 20.1804C34.905 21.428 35.5693 23.0321 35.5693 24.9929C35.5693 31.8853 31.4964 33.4002 27.5964 33.846C28.2321 34.4104 28.7807 35.4797 28.7807 37.1732C28.7807 39.5795 28.7521 41.5107 28.7521 42.1046C28.7521 42.58 29.07 43.1447 29.9364 42.9665C36.8693 40.5894 41.8668 33.8756 41.8668 25.9437C41.8954 16.0208 34.0671 8 24.4479 8Z" fill="white"/>
</g>
<defs>
<linearGradient id="paint0_linear_1868_8" x1="25.0002" y1="0" x2="25.0002" y2="50" gradientUnits="userSpaceOnUse">
<stop stop-color="#212121"/>
<stop offset="1" stop-color="#0F0F0F"/>
</linearGradient>
<clipPath id="clip0_1868_8">
<rect width="35" height="35" fill="white" transform="translate(7 8)"/>
</clipPath>
</defs>
</svg>
