<svg width="60" height="60" viewBox="0 0 60 60" fill="none" xmlns="http://www.w3.org/2000/svg">
<rect x="0.75" y="0.75" width="58.5" height="58.5" rx="9.25" fill="url(#paint0_linear_1868_8)"/>
<rect x="0.75" y="0.75" width="58.5" height="58.5" rx="9.25" stroke="#3D3D3D" stroke-width="1.5"/>
<g clip-path="url(#clip0_1868_8)">
<path fill-rule="evenodd" clip-rule="evenodd" d="M29.9374 9C18.3596 9 9 18.625 9 30.5324C9 40.0507 14.997 48.1077 23.3164 50.9593C24.3566 51.1737 24.7376 50.496 24.7376 49.9259C24.7376 49.4268 24.7033 47.7157 24.7033 45.9329C18.879 47.2165 17.6661 43.3661 17.6661 43.3661C16.7301 40.8706 15.3433 40.2292 15.3433 40.2292C13.437 38.9101 15.4821 38.9101 15.4821 38.9101C17.5967 39.0528 18.7063 41.1204 18.7063 41.1204C20.5779 44.3999 23.5937 43.4733 24.807 42.9028C24.9801 41.5124 25.5351 40.5499 26.1244 40.0153C21.4791 39.5161 16.5917 37.6624 16.5917 29.3914C16.5917 27.0386 17.4231 25.1136 18.7406 23.6164C18.5327 23.0818 17.8046 20.8711 18.9489 17.9123C18.9489 17.9123 20.7167 17.3418 24.7029 20.1226C26.4095 19.6512 28.1695 19.4115 29.9374 19.4094C31.7053 19.4094 33.5074 19.6593 35.1716 20.1226C39.1581 17.3418 40.926 17.9123 40.926 17.9123C42.0703 20.8711 41.3417 23.0818 41.1339 23.6164C42.486 25.1136 43.2831 27.0386 43.2831 29.3914C43.2831 37.6624 38.3957 39.4802 33.7157 40.0153C34.4786 40.6925 35.1369 41.9757 35.1369 44.0079C35.1369 46.8954 35.1026 49.2128 35.1026 49.9255C35.1026 50.496 35.484 51.1737 36.5237 50.9598C44.8431 48.1073 50.8401 40.0507 50.8401 30.5324C50.8744 18.625 41.4806 9 29.9374 9Z" fill="white"/>
</g>
<defs>
<linearGradient id="paint0_linear_1868_8" x1="30.0002" y1="0" x2="30.0002" y2="60" gradientUnits="userSpaceOnUse">
<stop stop-color="#212121"/>
<stop offset="1" stop-color="#0F0F0F"/>
</linearGradient>
<clipPath id="clip0_1868_8">
<rect width="42" height="42" fill="white" transform="translate(9 9)"/>
</clipPath>
</defs>
</svg>
