<svg width="60" height="60" viewBox="0 0 60 60" fill="none" xmlns="http://www.w3.org/2000/svg">
<rect x="0.75" y="0.75" width="58.5" height="58.5" rx="9.25" fill="url(#paint0_linear_1868_4)"/>
<rect x="0.75" y="0.75" width="58.5" height="58.5" rx="9.25" stroke="#2B4B35" stroke-width="1.5"/>
<g filter="url(#filter0_d_1868_4)">
<path d="M27.9118 9.11918C20.6653 9.83892 14.3739 14.1854 11.1159 20.7287C10.0299 22.9066 9.2996 25.4116 9.05617 27.7858L9 28.328H10.8724C11.9023 28.328 12.7449 28.3 12.7543 28.2532C12.8572 26.7296 13.5313 24.3367 14.3459 22.6261C17.2388 16.5691 23.2587 12.7646 29.9245 12.7646C32.7519 12.7646 35.1487 13.3161 37.6017 14.5313C40.3915 15.9146 42.6292 17.8776 44.3424 20.4294C45.1007 21.5605 46.1494 23.6264 46.0183 23.7384C45.9715 23.7852 45.2225 24.0096 44.3611 24.2338L42.7883 24.6546L42.3764 23.8506C41.0469 21.196 38.828 18.9713 36.2066 17.6534C35.261 17.1767 34.2874 16.812 34.1376 16.8681C34.072 16.8869 33.9879 17.1111 33.9597 17.3636C33.9223 17.6066 33.8193 18.2515 33.7162 18.7938C33.6226 19.3358 33.5197 19.9341 33.4915 20.121L33.426 20.4669L34.2219 20.8409C36.9556 22.112 38.9311 24.4675 39.7643 27.4401C40.0077 28.3 40.0358 28.4963 40.0358 30.0105C40.0358 31.5248 40.0077 31.7212 39.7643 32.5811C39.2681 34.3384 38.3881 35.8901 37.1803 37.1052C36.4875 37.8062 35.467 38.5634 34.7275 38.9466C34.4746 39.0681 34.278 39.2271 34.278 39.2925C34.2874 39.4513 35.1769 42.723 35.2423 42.7791C35.3266 42.8632 36.9088 42.0219 37.8357 41.405C38.9966 40.6292 40.6069 39.0215 41.3839 37.8623C42.47 36.236 43.1441 34.6748 43.5654 32.8055C43.7433 31.9829 43.7807 31.5622 43.7807 30.0386C43.7807 28.5244 43.7994 28.2346 43.9212 28.2065C45.0633 27.8794 47.0388 27.3933 47.0762 27.4213C47.1417 27.4962 47.2448 29.0572 47.2448 30.0105C47.2448 31.3004 47.123 32.5623 46.917 33.469C46.8234 33.8991 46.7486 34.2635 46.7579 34.273C46.7672 34.2916 47.5536 34.5721 48.4993 34.918C49.81 35.3946 50.2406 35.5161 50.2968 35.4227C50.4465 35.1703 50.8491 32.7026 50.9522 31.3846C51.1675 28.4402 50.6526 25.0564 49.576 22.3924C46.5425 14.8865 39.9141 9.895 31.9375 9.11918C30.3366 8.96027 29.4939 8.96027 27.9118 9.11918Z" fill="#00D845"/>
<path d="M28.3798 16.2412C27.6964 16.3066 26.1704 16.6712 25.3932 16.9422C21.5642 18.2883 18.4091 21.3636 16.9859 25.1492C15.8812 28.075 15.8437 31.7485 16.8923 34.6181L17.1265 35.2537L16.2651 35.7491C14.5424 36.7492 14.2336 36.9268 14.168 36.9268C14.0837 36.9268 13.6718 35.8893 13.4096 35.0107C13.1101 33.9637 12.7917 32.4495 12.7543 31.7578C12.7449 31.7204 11.9023 31.6924 10.8724 31.6924H9L9.05617 32.2252C9.55238 37.0578 11.7806 41.6193 15.3288 45.0684C23.652 53.1446 36.9369 52.9483 45.054 44.6291C46.1213 43.5262 47.1792 42.1707 47.9281 40.9369C48.5742 39.862 49.0703 38.8524 48.9955 38.7777C48.958 38.7402 48.5086 38.5626 47.9937 38.3758C47.4788 38.1889 46.7859 37.9364 46.4489 37.8242C46.1119 37.7027 45.7748 37.5718 45.7 37.5439C45.5969 37.5064 45.4658 37.6654 45.2038 38.1701C43.631 41.236 40.6911 44.0216 37.3675 45.6107C34.5309 46.9567 31.6472 47.4614 28.2301 47.1904C24.8878 46.9286 21.1616 45.2835 18.4559 42.8812C17.6882 42.1988 16.5741 41.0024 16.1527 40.4041C16.0123 40.1985 15.9375 40.2546 18.1094 38.9927L18.924 38.516L20.0755 39.6657C22.1352 41.7314 24.3448 42.9466 27.1722 43.5823C28.0054 43.7599 28.408 43.7972 29.9433 43.7972C30.9263 43.7972 31.7596 43.7692 31.7876 43.7411C31.8251 43.7131 31.6753 43.0588 31.4693 42.2924C31.2634 41.5257 31.048 40.7312 30.9919 40.5163L30.8889 40.1331L29.5688 40.077C27.0784 39.9741 25.103 39.189 23.2494 37.5625C22.9404 37.2915 22.5939 36.9549 22.491 36.8241L22.3038 36.5811L24.3728 35.3846L26.4511 34.1974L28.6232 36.4969L31.123 35.9828L33.6226 35.478L36.9931 32.113L36.6935 31.0101C36.5063 30.309 36.3564 29.9163 36.2816 29.9163C36.2066 29.9163 35.4484 30.1034 34.5869 30.337L33.0141 30.7669L32.3588 31.4026C31.6472 32.0944 31.7503 32.0663 30.2055 32.2064L29.6438 32.2625L28.9697 31.5989C28.5951 31.2438 28.2862 30.9259 28.2862 30.9072C28.2862 30.8791 28.1833 30.4866 28.0615 30.0192L27.8368 29.1686L28.4453 28.3553C28.7823 27.8973 29.0726 27.5235 29.0913 27.5047C29.1008 27.486 29.5034 27.3645 29.9901 27.243L30.8608 27.0188L32.0498 25.8316C32.7146 25.1773 33.2483 24.5977 33.2483 24.5416C33.2483 24.4855 32.8925 24.093 32.4617 23.663L31.6753 22.8872L29.4003 23.5041L27.1159 24.121L26.6478 24.607C26.395 24.8781 25.8614 25.4576 25.4775 25.897C25.0937 26.327 24.6068 26.8785 24.4009 27.1122C23.6052 28.0095 23.6332 27.7384 24.1294 29.4396C24.3634 30.2715 24.5507 30.9726 24.532 30.982C24.4852 31.0194 22.5471 32.1505 21.3488 32.8235C20.8994 33.0758 20.4968 33.2814 20.4406 33.2814C20.3938 33.2814 20.2534 32.8889 20.1318 32.412C19.9351 31.6736 19.9071 31.3372 19.9071 29.9631C19.9164 28.5143 19.9351 28.2899 20.1786 27.4393C20.684 25.6447 21.5547 24.1396 22.8093 22.8872C24.532 21.1672 26.7976 20.111 29.1008 19.952C30.0744 19.8773 29.9995 19.952 30.1587 18.9332C30.2148 18.5686 30.2991 18.1107 30.3459 17.905C30.3927 17.6994 30.4489 17.3628 30.477 17.1572C30.5145 16.9515 30.5613 16.6432 30.5893 16.4749L30.6454 16.1758L29.6811 16.1944C29.1476 16.1944 28.5576 16.2224 28.3798 16.2412Z" fill="#00D845"/>
</g>
<defs>
<filter id="filter0_d_1868_4" x="3.39972" y="3.39972" width="53.2008" height="53.1996" filterUnits="userSpaceOnUse" color-interpolation-filters="sRGB">
<feFlood flood-opacity="0" result="BackgroundImageFix"/>
<feColorMatrix in="SourceAlpha" type="matrix" values="0 0 0 0 0 0 0 0 0 0 0 0 0 0 0 0 0 0 127 0" result="hardAlpha"/>
<feOffset/>
<feGaussianBlur stdDeviation="2.80014"/>
<feComposite in2="hardAlpha" operator="out"/>
<feColorMatrix type="matrix" values="0 0 0 0 0 0 0 0 0 0 0 0 0 0 0 0 0 0 0.25 0"/>
<feBlend mode="normal" in2="BackgroundImageFix" result="effect1_dropShadow_1868_4"/>
<feBlend mode="normal" in="SourceGraphic" in2="effect1_dropShadow_1868_4" result="shape"/>
</filter>
<linearGradient id="paint0_linear_1868_4" x1="30.0002" y1="0" x2="30.0002" y2="60" gradientUnits="userSpaceOnUse">
<stop stop-color="#06652F"/>
<stop offset="1" stop-color="#032813"/>
</linearGradient>
</defs>
</svg>
