<svg width="50" height="50" viewBox="0 0 50 50" fill="none" xmlns="http://www.w3.org/2000/svg">
<rect x="0.75" y="0.75" width="48.5" height="48.5" rx="9.25" fill="url(#paint0_linear_1868_4)"/>
<rect x="0.75" y="0.75" width="48.5" height="48.5" rx="9.25" stroke="#2B4B35" stroke-width="1.5"/>
<g filter="url(#filter0_d_1868_4)">
<path d="M23.2598 7.59931C17.2211 8.1991 11.9783 11.8212 9.26323 17.2739C8.35821 19.0888 7.74966 21.1763 7.54681 23.1548L7.5 23.6067H9.06037C9.91859 23.6067 10.6207 23.5833 10.6286 23.5443C10.7143 22.2746 11.2761 20.2806 11.9549 18.8551C14.3657 13.8075 19.3822 10.6372 24.9371 10.6372C27.2933 10.6372 29.2906 11.0968 31.3347 12.1094C33.6596 13.2622 35.5243 14.898 36.952 17.0245C37.584 17.9671 38.4578 19.6886 38.3486 19.782C38.3096 19.821 37.6855 20.008 36.9676 20.1949L35.6569 20.5455L35.3137 19.8755C34.2057 17.6634 32.3567 15.8095 30.1721 14.7111C29.3842 14.3139 28.5728 14.01 28.448 14.0568C28.3933 14.0724 28.3232 14.2593 28.2997 14.4696C28.2686 14.6721 28.1827 15.2096 28.0969 15.6615C28.0189 16.1132 27.9331 16.6118 27.9096 16.7675L27.855 17.0558L28.5182 17.3674C30.7964 18.4267 32.4426 20.3896 33.1369 22.8667C33.3398 23.5833 33.3631 23.7469 33.3631 25.0088C33.3631 26.2707 33.3398 26.4343 33.1369 27.1509C32.7234 28.6153 31.9901 29.9084 30.9836 30.921C30.4063 31.5052 29.5558 32.1362 28.9396 32.4555C28.7288 32.5568 28.565 32.6893 28.565 32.7438C28.5728 32.8761 29.3141 35.6025 29.3686 35.6492C29.4388 35.7194 30.7574 35.0183 31.5297 34.5042C32.4972 33.8577 33.8391 32.5179 34.4866 31.5519C35.3917 30.1966 35.9534 28.8957 36.3045 27.3379C36.4528 26.6524 36.4839 26.3018 36.4839 25.0321C36.4839 23.7703 36.4995 23.5288 36.601 23.5055C37.5527 23.2328 39.199 22.8277 39.2301 22.8511C39.2848 22.9135 39.3706 24.2143 39.3706 25.0088C39.3706 26.0837 39.2691 27.1353 39.0975 27.8909C39.0195 28.2492 38.9572 28.553 38.9649 28.5608C38.9727 28.5763 39.628 28.8101 40.4161 29.0983C41.5083 29.4955 41.8672 29.5968 41.914 29.5189C42.0388 29.3085 42.3743 27.2521 42.4601 26.1538C42.6396 23.7002 42.2105 20.8803 41.3133 18.6603C38.7854 12.4054 33.2618 8.24583 26.6145 7.59931C25.2805 7.4669 24.5783 7.4669 23.2598 7.59931Z" fill="#00D845"/>
<path d="M23.6498 13.535C23.0803 13.5895 21.8086 13.8933 21.161 14.1192C17.9702 15.2409 15.3409 17.8036 14.1549 20.9584C13.2344 23.3965 13.2031 26.4577 14.0769 28.8491L14.2721 29.3787L13.5542 29.7916C12.1187 30.625 11.8613 30.773 11.8067 30.773C11.7364 30.773 11.3932 29.9084 11.1747 29.1762C10.9251 28.3037 10.6597 27.0419 10.6286 26.4655C10.6207 26.4343 9.91859 26.411 9.06037 26.411H7.5L7.54681 26.8549C7.96032 30.8821 9.81715 34.6834 12.774 37.5577C19.71 44.2878 30.7807 44.1242 37.545 37.1916C38.4344 36.2725 39.316 35.1429 39.9401 34.1147C40.4785 33.219 40.8919 32.3777 40.8296 32.3154C40.7983 32.2842 40.4238 32.1362 39.9947 31.9804C39.5656 31.8247 38.9883 31.6143 38.7074 31.5208C38.4265 31.4196 38.1457 31.3105 38.0833 31.2872C37.9974 31.256 37.8882 31.3885 37.6698 31.8091C36.3591 34.364 33.9092 36.6853 31.1396 38.0095C28.7757 39.1312 26.3727 39.5518 23.5251 39.326C20.7398 39.1079 17.6347 37.7369 15.3799 35.735C14.7402 35.1663 13.8117 34.1693 13.4606 33.6707C13.3436 33.4994 13.2812 33.5461 15.0912 32.4945L15.77 32.0973L16.7296 33.0554C18.446 34.7768 20.2873 35.7895 22.6435 36.3192C23.3378 36.4672 23.6733 36.4984 24.9527 36.4984C25.772 36.4984 26.4663 36.475 26.4897 36.4516C26.5209 36.4282 26.3961 35.883 26.2244 35.2443C26.0528 34.6054 25.8733 33.9434 25.8266 33.7642L25.7407 33.4449L24.6406 33.3981C22.5653 33.3124 20.9192 32.6582 19.3745 31.3027C19.117 31.0769 18.8282 30.7964 18.7425 30.6874L18.5865 30.4849L20.3107 29.4878L22.0426 28.4985L23.8527 30.4148L25.9358 29.9863L28.0189 29.5657L30.8276 26.7614L30.5779 25.8424C30.4219 25.2581 30.297 24.9309 30.2346 24.9309C30.1721 24.9309 29.5403 25.0868 28.8225 25.2815L27.5118 25.6398L26.9657 26.1695C26.3727 26.7459 26.4586 26.7226 25.1712 26.8393L24.7031 26.8861L24.1414 26.3331C23.8293 26.0371 23.5718 25.7722 23.5718 25.7566C23.5718 25.7332 23.4861 25.4061 23.3846 25.0167L23.1973 24.3078L23.7044 23.6301C23.9853 23.2484 24.2271 22.9369 24.2428 22.9213C24.2506 22.9056 24.5861 22.8044 24.9917 22.7031L25.7173 22.5163L26.7082 21.527C27.2621 20.9817 27.7069 20.4988 27.7069 20.452C27.7069 20.4053 27.4104 20.0781 27.0514 19.7198L26.3961 19.0733L24.5003 19.5874L22.5966 20.1015L22.2065 20.5065C21.9959 20.7324 21.5511 21.2153 21.2313 21.5815C20.9114 21.9398 20.5057 22.3994 20.3341 22.5942C19.671 23.3419 19.6943 23.116 20.1078 24.5337C20.3028 25.2269 20.4589 25.8111 20.4433 25.819C20.4043 25.8501 18.7892 26.7927 17.7907 27.3535C17.4162 27.5638 17.0807 27.7352 17.0338 27.7352C16.9948 27.7352 16.8778 27.408 16.7765 27.0107C16.6126 26.3953 16.5892 26.115 16.5892 24.9699C16.597 23.7626 16.6126 23.5756 16.8155 22.8668C17.2367 21.3712 17.9623 20.117 19.0077 19.0733C20.4433 17.64 22.3314 16.7598 24.2506 16.6273C25.062 16.5651 24.9996 16.6273 25.1322 15.7784C25.179 15.4745 25.2492 15.0929 25.2882 14.9215C25.3272 14.7502 25.3741 14.4697 25.3975 14.2983C25.4287 14.1269 25.4677 13.8699 25.4911 13.7297L25.5378 13.4805L24.7343 13.496C24.2896 13.496 23.798 13.5193 23.6498 13.535Z" fill="#00D845"/>
</g>
<defs>
<filter id="filter0_d_1868_4" x="1.89972" y="1.89972" width="46.2008" height="46.2006" filterUnits="userSpaceOnUse" color-interpolation-filters="sRGB">
<feFlood flood-opacity="0" result="BackgroundImageFix"/>
<feColorMatrix in="SourceAlpha" type="matrix" values="0 0 0 0 0 0 0 0 0 0 0 0 0 0 0 0 0 0 127 0" result="hardAlpha"/>
<feOffset/>
<feGaussianBlur stdDeviation="2.80014"/>
<feComposite in2="hardAlpha" operator="out"/>
<feColorMatrix type="matrix" values="0 0 0 0 0 0 0 0 0 0 0 0 0 0 0 0 0 0 0.25 0"/>
<feBlend mode="normal" in2="BackgroundImageFix" result="effect1_dropShadow_1868_4"/>
<feBlend mode="normal" in="SourceGraphic" in2="effect1_dropShadow_1868_4" result="shape"/>
</filter>
<linearGradient id="paint0_linear_1868_4" x1="25.0002" y1="0" x2="25.0002" y2="50" gradientUnits="userSpaceOnUse">
<stop stop-color="#06652F"/>
<stop offset="1" stop-color="#032813"/>
</linearGradient>
</defs>
</svg>
