<svg width="60" height="60" viewBox="0 0 60 60" fill="none" xmlns="http://www.w3.org/2000/svg">
<rect x="0.75" y="0.75" width="58.5" height="58.5" rx="9.25" fill="url(#paint0_linear_1868_11)"/>
<rect x="0.75" y="0.75" width="58.5" height="58.5" rx="9.25" stroke="url(#paint1_linear_1868_11)" stroke-width="1.5"/>
<g filter="url(#filter0_d_1868_11)">
<path d="M39.4704 14.498L31.1853 19.1938L39.4791 23.8808L47.7643 19.1852L39.4704 14.498Z" stroke="url(#paint2_linear_1868_11)" stroke-width="1.3" stroke-linejoin="round"/>
<path d="M29.7363 9L21.4468 13.6957L29.7406 18.3785L38.0302 13.6871L29.7363 9Z" stroke="url(#paint3_linear_1868_11)" stroke-width="1.3" stroke-linejoin="round"/>
<path d="M20.0088 14.5117L11.7192 19.2032L20.0131 23.8902L28.2983 19.1988L20.0088 14.5117Z" stroke="url(#paint4_linear_1868_11)" stroke-width="1.3" stroke-linejoin="round"/>
<path d="M29.745 20.0098L21.4556 24.7055L29.7494 29.3884L38.0389 24.697L29.745 20.0098Z" stroke="url(#paint5_linear_1868_11)" stroke-width="1.3" stroke-linejoin="round"/>
<path d="M11 20.4268L11.0044 29.8096L19.2982 34.4924L19.2939 25.114L11 20.4268Z" stroke="url(#paint6_linear_1868_11)" stroke-width="1.3" stroke-linejoin="round"/>
<path d="M20.7363 25.9277L20.7407 35.3063L29.0345 39.9934L29.0302 30.6149L20.7363 25.9277Z" stroke="url(#paint7_linear_1868_11)" stroke-width="1.3" stroke-linejoin="round"/>
<path d="M11.0044 31.4355L11.0088 40.8142L19.3027 45.497L19.2982 36.1184L11.0044 31.4355Z" stroke="url(#paint8_linear_1868_11)" stroke-width="1.3" stroke-linejoin="round"/>
<path d="M20.7407 36.9385L20.7451 46.3171L29.0391 50.9998L29.0346 41.6213L20.7407 36.9385Z" stroke="url(#paint9_linear_1868_11)" stroke-width="1.3" stroke-linejoin="round"/>
<path d="M30.4801 51.0007L38.7696 46.3093L38.7652 36.9307L30.4756 41.6221L30.4801 51.0007Z" stroke="url(#paint10_linear_1868_11)" stroke-width="1.3" stroke-linejoin="round"/>
<path d="M40.2106 45.4878L48.5 40.7964L48.4912 31.418L40.2061 36.1094L40.2106 45.4878Z" stroke="url(#paint11_linear_1868_11)" stroke-width="1.3" stroke-linejoin="round"/>
<path d="M40.2031 34.479L48.4926 29.7876L48.4882 20.4092L40.1987 25.1006L40.2031 34.479Z" stroke="url(#paint12_linear_1868_11)" stroke-width="1.3" stroke-linejoin="round"/>
<path d="M30.4719 30.6104L30.4763 39.9888L38.7614 35.2974L38.7571 25.9189L30.4719 30.6104Z" stroke="url(#paint13_linear_1868_11)" stroke-width="1.3" stroke-linejoin="round"/>
</g>
<defs>
<filter id="filter0_d_1868_11" x="4.74982" y="2.74933" width="50.0006" height="54.5013" filterUnits="userSpaceOnUse" color-interpolation-filters="sRGB">
<feFlood flood-opacity="0" result="BackgroundImageFix"/>
<feColorMatrix in="SourceAlpha" type="matrix" values="0 0 0 0 0 0 0 0 0 0 0 0 0 0 0 0 0 0 127 0" result="hardAlpha"/>
<feOffset/>
<feGaussianBlur stdDeviation="2.80014"/>
<feComposite in2="hardAlpha" operator="out"/>
<feColorMatrix type="matrix" values="0 0 0 0 0 0 0 0 0 0 0 0 0 0 0 0 0 0 0.25 0"/>
<feBlend mode="normal" in2="BackgroundImageFix" result="effect1_dropShadow_1868_11"/>
<feBlend mode="normal" in="SourceGraphic" in2="effect1_dropShadow_1868_11" result="shape"/>
</filter>
<linearGradient id="paint0_linear_1868_11" x1="0" y1="0" x2="60" y2="60" gradientUnits="userSpaceOnUse">
<stop stop-color="#0B2130"/>
<stop offset="1" stop-color="#1F0622"/>
</linearGradient>
<linearGradient id="paint1_linear_1868_11" x1="0" y1="0" x2="60" y2="60" gradientUnits="userSpaceOnUse">
<stop stop-color="#2E424E"/>
<stop offset="1" stop-color="#412B42"/>
</linearGradient>
<linearGradient id="paint2_linear_1868_11" x1="7.88524" y1="8.54901" x2="50.7985" y2="52.3533" gradientUnits="userSpaceOnUse">
<stop offset="0.15" stop-color="#25B8FF"/>
<stop offset="0.85" stop-color="#FA02FF"/>
</linearGradient>
<linearGradient id="paint3_linear_1868_11" x1="7.8865" y1="8.54932" x2="50.7998" y2="52.3535" gradientUnits="userSpaceOnUse">
<stop offset="0.15" stop-color="#25B8FF"/>
<stop offset="0.85" stop-color="#FA02FF"/>
</linearGradient>
<linearGradient id="paint4_linear_1868_11" x1="7.88555" y1="8.54982" x2="50.7989" y2="52.354" gradientUnits="userSpaceOnUse">
<stop offset="0.15" stop-color="#25B8FF"/>
<stop offset="0.85" stop-color="#FA02FF"/>
</linearGradient>
<linearGradient id="paint5_linear_1868_11" x1="7.88646" y1="8.54956" x2="50.7997" y2="52.3538" gradientUnits="userSpaceOnUse">
<stop offset="0.15" stop-color="#25B8FF"/>
<stop offset="0.85" stop-color="#FA02FF"/>
</linearGradient>
<linearGradient id="paint6_linear_1868_11" x1="7.88485" y1="8.55019" x2="50.7981" y2="52.3544" gradientUnits="userSpaceOnUse">
<stop offset="0.15" stop-color="#25B8FF"/>
<stop offset="0.85" stop-color="#FA02FF"/>
</linearGradient>
<linearGradient id="paint7_linear_1868_11" x1="7.88577" y1="8.54852" x2="50.7991" y2="52.3528" gradientUnits="userSpaceOnUse">
<stop offset="0.15" stop-color="#25B8FF"/>
<stop offset="0.85" stop-color="#FA02FF"/>
</linearGradient>
<linearGradient id="paint8_linear_1868_11" x1="7.88487" y1="8.54941" x2="50.7981" y2="52.3537" gradientUnits="userSpaceOnUse">
<stop offset="0.15" stop-color="#25B8FF"/>
<stop offset="0.85" stop-color="#FA02FF"/>
</linearGradient>
<linearGradient id="paint9_linear_1868_11" x1="7.88584" y1="8.54967" x2="50.7991" y2="52.354" gradientUnits="userSpaceOnUse">
<stop offset="0.15" stop-color="#25B8FF"/>
<stop offset="0.85" stop-color="#FA02FF"/>
</linearGradient>
<linearGradient id="paint10_linear_1868_11" x1="7.88539" y1="8.55047" x2="50.7986" y2="52.3547" gradientUnits="userSpaceOnUse">
<stop offset="0.15" stop-color="#25B8FF"/>
<stop offset="0.85" stop-color="#FA02FF"/>
</linearGradient>
<linearGradient id="paint11_linear_1868_11" x1="7.88489" y1="8.54896" x2="50.7982" y2="52.3533" gradientUnits="userSpaceOnUse">
<stop offset="0.15" stop-color="#25B8FF"/>
<stop offset="0.85" stop-color="#FA02FF"/>
</linearGradient>
<linearGradient id="paint12_linear_1868_11" x1="7.88619" y1="8.54969" x2="50.7995" y2="52.354" gradientUnits="userSpaceOnUse">
<stop offset="0.15" stop-color="#25B8FF"/>
<stop offset="0.85" stop-color="#FA02FF"/>
</linearGradient>
<linearGradient id="paint13_linear_1868_11" x1="7.88605" y1="8.54826" x2="50.7993" y2="52.3526" gradientUnits="userSpaceOnUse">
<stop offset="0.15" stop-color="#25B8FF"/>
<stop offset="0.85" stop-color="#FA02FF"/>
</linearGradient>
</defs>
</svg>
